<svg width="63" height="47" viewBox="0 0 63 47" fill="none" xmlns="http://www.w3.org/2000/svg">
<rect x="9.14062" y="1.14062" width="44.7188" height="44.7188" rx="22.3594" fill="white"/>
<rect x="9.14062" y="1.14062" width="44.7188" height="44.7188" rx="22.3594" stroke="#001125" stroke-width="0.28125"/>
<path d="M22.961 45.1232C22.899 45.1343 22.857 45.11 22.8304 45.0524C22.2663 44.3334 21.5539 43.9529 20.6203 44.0812L20.607 44.0746C20.0252 43.1764 19.5363 42.1941 18.835 41.3999C18.1204 40.5902 17.1956 39.9663 16.3638 39.2606L16.3749 39.2561C16.2311 39.1765 16.085 39.0946 15.9412 39.015V39.0194C15.7643 38.7053 15.6536 38.3093 15.3926 38.0947C14.8196 37.6279 14.1714 37.254 13.5386 36.8314C13.6957 36.5571 13.8174 36.3425 13.9413 36.1279C14.0209 35.6876 14.1028 35.2452 14.1824 34.8049C14.2466 34.8005 14.3107 34.7939 14.3749 34.785C14.5342 34.6655 14.7709 34.5815 14.8395 34.4244C16.0253 31.7077 14.8461 26.8914 12.6095 25.0773C12.3197 24.8428 11.8396 24.8406 11.4458 24.7322C11.3197 25.21 11.1936 25.6879 11.0675 26.1658C11.0055 26.3206 10.9458 26.4733 10.8838 26.6281C10.656 27.106 10.2998 27.5662 10.229 28.0684C10.0697 29.1967 10.0542 30.3449 9.979 31.4864L9.31309 30.159C8.69364 27.5418 8.37728 24.8893 8.42816 22.1968C8.53878 22.1968 8.65382 22.1747 8.76001 22.1968C12.5453 23.0353 16.3306 23.8694 20.1093 24.7366C20.3725 24.7963 20.5783 25.0972 20.8128 25.2875C20.3416 25.7941 19.7973 26.252 19.4124 26.8162C18.054 28.8206 18.1314 32.243 21.4986 34.0837C21.6468 34.17 21.7973 34.2585 21.9455 34.3448V34.3337C22.0119 34.9443 22.1291 35.5549 22.138 36.1655C22.1645 38.0239 22.138 39.8844 22.1579 41.745C22.1623 42.0879 22.2928 42.4308 22.3636 42.7737C22.4366 42.8467 22.5097 42.922 22.5827 42.995C22.8282 43.2804 23.0251 43.7383 23.3282 43.8246C24.8636 44.256 26.4122 44.694 27.9874 44.9197C28.9608 45.0591 29.9873 44.8268 30.9917 44.7604C31.1422 44.7604 31.2948 44.7626 31.4453 44.7648C31.5913 44.8356 31.7373 44.9042 31.8833 44.975C34.2925 45.2936 36.5513 44.4131 38.8676 44.0348C39.3145 43.9618 39.6707 43.3313 40.0667 42.9574L40.1552 42.9529C40.2725 42.8932 40.3897 42.8357 40.507 42.776C40.507 39.9707 40.507 37.1655 40.507 34.3602L40.5003 34.3647C40.7216 34.2939 40.945 34.2231 41.1662 34.1501C41.6131 33.7828 42.0622 33.4178 42.5091 33.0505C44.3896 31.451 44.6617 28.7232 43.1463 26.6702L43.1219 26.6392C42.9892 26.4158 42.8543 26.1923 42.7215 25.9667C42.6485 25.8892 42.5755 25.8118 42.5025 25.7344C42.4273 25.6614 42.3543 25.5861 42.279 25.5131C42.2016 25.4445 42.1264 25.3738 42.049 25.3052C42.3432 25.0839 42.6065 24.7853 42.9361 24.657C43.3719 24.4888 43.8631 24.4645 44.3255 24.3649C47.3298 23.7167 50.3319 23.0663 53.3341 22.4159C54.4004 22.8119 54.5951 23.6282 54.4447 24.6415C54.3916 24.9977 54.4358 25.3671 54.4358 25.7299C54.3672 25.9534 54.2986 26.1768 54.2323 26.4003C53.8695 27.7277 53.5088 29.0573 53.146 30.3847C52.8319 30.1944 52.719 30.0219 52.6814 29.836C52.3872 28.3361 52.1306 26.8295 51.8164 25.3317C51.6704 24.6415 51.5885 24.6415 50.9071 25.064C50.843 25.0862 50.7788 25.0972 50.7125 25.0972C49.2656 25.1437 49.2236 26.3273 48.9227 27.3029H48.9249C48.7944 27.3538 48.6152 27.3649 48.5377 27.46C47.0046 29.3471 46.8409 33.7939 48.2369 35.7673C48.3497 35.9266 48.5886 35.9974 48.77 36.108C48.8275 36.108 48.8762 36.1301 48.9183 36.1721C48.8895 36.4974 48.9846 36.9885 48.8098 37.1212C47.8232 37.8734 46.7502 38.5128 45.7546 39.2539C45.5356 39.4176 45.5068 39.8402 45.3918 40.1433H45.394C45.0865 40.3645 44.7392 40.5481 44.4803 40.818C43.6507 41.6764 42.8985 42.6167 42.0313 43.4352C40.4627 44.9131 38.3787 45.4219 36.3965 45.798C32.2572 46.5812 28.0781 46.8157 24.0516 45.0458C23.7552 44.9153 23.326 45.0945 22.9565 45.1299L22.961 45.1232Z" fill="#5995BA"/>
<path d="M45.5457 5.16423C45.6386 5.22618 45.7293 5.28591 45.8223 5.34786C45.9019 5.4275 45.9793 5.50936 46.059 5.589L46.0546 5.57352C46.2094 5.71953 46.3643 5.86555 46.5169 6.00935L46.497 6.00492C46.5789 6.08014 46.6607 6.15315 46.7426 6.22837C46.7426 6.22837 46.7537 6.20624 46.7537 6.20846C46.5944 6.60446 46.4373 7.00047 46.278 7.39648V7.38763C46.1231 7.45621 45.9705 7.52479 45.8156 7.59559H45.82C44.7581 7.5447 43.798 7.73939 43.1697 8.71503V8.70839C42.5347 8.86104 41.8533 8.91856 41.2671 9.18404C40.318 9.61323 39.4286 10.1796 38.5149 10.6884C38.0348 10.4672 37.5614 10.2216 37.0681 10.0314C36.8513 9.9473 36.5946 9.97606 36.3557 9.95172C36.5216 9.85217 36.6898 9.75482 36.8557 9.65527C37.1145 10.2194 37.3734 10.7858 37.6322 11.3499C37.5459 11.5446 37.5105 11.7946 37.3667 11.9229C36.2893 12.8786 35.1522 13.7724 34.1124 14.768C33.6434 15.2171 33.358 15.8564 32.9885 16.4095C32.5372 17.0268 32.0881 17.644 31.6368 18.2612C31.4952 18.3077 31.3514 18.3564 31.2098 18.405C31.2983 17.7192 30.9974 17.363 30.305 17.3409L30.3182 17.3453C30.2408 17.2679 30.1634 17.1905 30.0882 17.113L30.097 17.1219C30.0262 17.04 29.9576 16.9604 29.8868 16.8785C29.8537 16.8409 29.8426 16.7989 29.8536 16.7502C29.9621 16.0755 29.7032 15.7281 28.9908 15.7834H28.9953C28.7165 15.3166 28.5329 14.737 28.1391 14.4029C27.2984 13.6906 26.3515 13.1065 25.4467 12.4694L25.4555 12.4738C25.3781 12.3986 25.3007 12.3211 25.221 12.2459L25.2321 12.257C25.1524 12.1818 25.075 12.1065 24.9954 12.0313V12.0468C24.856 11.8167 24.7719 11.5092 24.5684 11.3676C23.6237 10.6995 22.6746 10.0336 21.6724 9.45837C21.1968 9.18404 20.6017 9.11546 20.0597 8.95175C20.0132 8.96945 19.969 8.96281 19.9313 8.93184C19.6106 8.02699 18.8827 7.97832 18.0951 8.06018C18.0398 8.06903 17.9889 8.06018 17.9425 8.02921C17.5752 7.88319 17.2057 7.73718 16.8385 7.59116H16.8341C16.6814 7.52258 16.5266 7.454 16.3739 7.38763V7.39648C16.0708 7.08454 15.7633 6.7726 15.458 6.46066C15.5885 6.38323 15.7191 6.3058 15.8496 6.22837C17.4071 5.70404 18.6039 4.67531 19.7013 3.50277C19.7212 3.48065 19.7123 3.43198 19.7167 3.39658L19.7212 3.39216C20.3384 2.99836 21.5109 3.69304 21.6702 2.40103C21.9047 2.29705 22.1392 2.19528 22.3738 2.09131C22.533 2.15104 22.7299 2.30369 22.8494 2.25944C23.9467 1.83025 25.0286 1.36787 26.1148 0.916558L26.1015 0.929831C28.3338 0.865674 30.566 0.732934 32.7983 0.750633C35.6787 0.774968 38.4353 1.34796 40.9485 2.87447C41.3202 3.10013 41.86 3.04482 42.3224 3.11783L42.3069 3.1134C42.6011 3.27269 42.8953 3.42977 43.1874 3.58684L43.1807 3.57578C43.4064 3.7218 43.632 3.87002 43.8577 4.01603C43.8577 4.01603 43.8466 4.00718 43.8466 4.0094C44.0745 4.15984 44.3024 4.30806 44.5303 4.4585L44.5059 4.45408C44.7426 4.60894 44.9816 4.7638 45.2183 4.91867C45.2913 4.93194 45.3488 4.96734 45.3931 5.02707C45.4307 5.0868 45.4816 5.13326 45.5457 5.16423ZM28.909 9.69509C30.5771 11.0203 31.7032 11.0402 33.5018 9.86102C33.7894 9.67297 34.2496 9.65969 34.6168 9.6973C36.0305 9.84332 36.9353 9.25926 37.3933 7.91195C37.7672 6.81021 37.4729 5.85006 36.7495 5.05583C36.0039 4.23948 35.0305 4.05143 33.9199 4.28594C33.4465 4.38549 32.8536 4.30364 32.4133 4.09568C31.4156 3.62003 30.4001 3.25499 29.3559 3.71516C28.1546 4.24391 27.2276 5.3191 25.8228 5.49387C25.6237 5.51821 25.4157 5.90758 25.3073 6.16863C24.8892 7.18188 24.8626 8.19292 25.5883 9.08449C26.3316 9.99597 27.5241 10.1884 28.9068 9.6973L28.909 9.69509Z" fill="#5A95B9"/>
<path d="M6.10246 19.3208C4.3503 17.1041 2.59592 14.8873 0.84375 12.6728C0.905695 12.5931 0.965429 12.5135 1.02737 12.436C2.02071 12.5997 3.01405 12.7635 4.00739 12.9294C7.30376 13.7302 10.5957 14.5466 13.8965 15.3253C17.7393 16.2324 21.5888 17.1085 25.436 17.9978C25.925 19.9358 26.4139 21.8738 26.9249 23.8959C20.1994 22.4358 13.5381 20.9889 6.87899 19.542C6.62015 19.469 6.36131 19.396 6.10468 19.3252L6.10246 19.3208Z" fill="#7DB9D4"/>
<path d="M58.6545 12.925C59.7098 12.7236 60.7651 12.5223 62.1566 12.2568C60.1567 14.7745 58.3514 17.0487 56.5461 19.3208C49.6724 20.8363 42.8009 22.3539 35.79 23.9003C36.29 21.823 36.748 19.9093 37.2081 17.9956C41.1284 17.0996 45.0531 16.2235 48.9667 15.301C52.2011 14.5378 55.4245 13.7192 58.6523 12.9272L58.6545 12.925Z" fill="#7DB9D4"/>
<path d="M4.88574 11.3518C5.18662 10.6084 5.48971 9.86507 5.79058 9.12394C10.0471 9.26774 14.2041 9.94029 18.2239 11.4978C18.0159 11.1571 17.777 10.927 17.4894 10.8142C16.0248 10.239 14.578 9.5841 13.0669 9.1704C11.0316 8.6151 8.94316 8.25449 6.87906 7.80981C6.95427 7.48902 7.05604 7.17266 7.09586 6.84966C7.2109 5.95809 7.74186 5.48908 8.59361 5.62182C10.0228 5.84526 11.432 6.19038 12.8501 6.48462C12.9408 6.60188 13.0315 6.71692 13.1223 6.83417C13.1798 6.71913 13.2351 6.6063 13.2926 6.49126C13.4408 6.56427 13.5891 6.63507 13.7373 6.70807C14.0559 7.00231 14.3235 7.41159 14.6996 7.57088C16.2793 8.239 18.0004 8.64165 19.4672 9.4934C22.0446 10.9911 24.5888 12.6106 26.3144 15.1636C26.6285 15.6304 26.8365 16.168 27.0931 16.6724C27.0068 16.7476 26.9184 16.8229 26.8321 16.9003C25.9914 16.7034 25.1463 16.5242 24.3122 16.3096C21.2371 15.5154 18.1664 14.7056 15.0934 13.9092C13.2528 13.4336 11.4121 12.9645 9.56925 12.5022C8.01177 12.1106 6.44986 11.7345 4.89017 11.3518H4.88574Z" fill="#F7EFE4"/>
<path d="M56.6538 9.13951C57.0233 9.87622 57.3949 10.6129 57.7644 11.3496C55.3375 12.0023 52.9172 12.6837 50.4814 13.2965C46.9328 14.1903 43.3732 15.0354 39.8179 15.896C38.4618 16.2234 37.1012 16.5331 35.6123 16.8805C35.6875 16.4491 35.6543 16.1836 35.7694 16.0376C36.6831 14.8982 37.4861 13.6173 38.5835 12.6881C41.767 9.98905 45.497 8.24352 49.435 6.91833C49.8088 6.79223 50.1208 6.48472 50.4615 6.26348C51.3752 6.04446 52.2778 5.74359 53.2048 5.62191C54.8397 5.40731 55.5941 6.09092 56.0078 7.99353C52.6583 8.27449 49.3796 8.8143 46.3222 10.4691C49.8265 10.0178 53.2402 9.57755 56.6538 9.13951ZM45.3665 10.8873C45.2957 10.8961 45.2227 10.9027 45.1519 10.9094C44.2714 11.3629 43.3909 11.8186 42.5104 12.2722C42.5745 12.3828 42.6387 12.4934 42.7006 12.604C43.5966 12.1195 44.4926 11.6328 45.3886 11.1461C45.5744 11.0709 45.7603 10.9957 45.9439 10.9204C45.9129 10.8607 45.8709 10.7479 45.8532 10.7523C45.6895 10.7855 45.5302 10.8408 45.3687 10.8873H45.3665Z" fill="#F7EFE4"/>
<path d="M50.4617 6.26589C50.121 6.48933 49.8091 6.79463 49.4352 6.92073C45.4972 8.24592 41.7672 9.99145 38.5837 12.6905C37.4864 13.6197 36.6833 14.9006 35.7696 16.04C35.6546 16.186 35.6878 16.4492 35.6125 16.8829C37.1014 16.5355 38.462 16.2258 39.8182 15.8984C43.3734 15.0378 46.933 14.1927 50.4816 13.2989C52.9196 12.6861 55.3377 12.0025 57.7646 11.352C58.0611 11.8764 58.3575 12.4029 58.654 12.9272C55.4262 13.7214 52.2028 14.5378 48.9684 15.301C45.0548 16.2236 41.1301 17.0997 37.2076 17.9957C36.4576 18.1594 35.7099 18.3253 34.9599 18.489C33.8515 18.4138 32.7431 18.3386 31.6348 18.2656C32.0861 17.6483 32.5352 17.0311 32.9865 16.4139C33.2365 16.2236 33.5086 16.0555 33.7343 15.8386C34.5019 15.0975 35.1701 14.2281 36.024 13.613C38.3669 11.9228 40.785 10.3366 43.1721 8.71051L43.1699 8.71715C44.0526 8.34326 44.9353 7.97159 45.8202 7.59771H45.8158C45.9707 7.52913 46.1233 7.46054 46.2782 7.38975V7.3986C46.7605 7.25259 47.2428 7.10657 47.7251 6.95834C48.6365 6.72605 49.548 6.49597 50.4595 6.26367L50.4617 6.26589Z" fill="#E8E3D3"/>
<path d="M4.88539 11.3522C6.44508 11.7349 8.00478 12.1132 9.56447 12.5026C11.4073 12.965 13.2502 13.4318 15.0887 13.9096C18.1638 14.7061 21.2323 15.5158 24.3075 16.31C25.1437 16.5246 25.9866 16.7038 26.8273 16.9007C26.9136 16.8255 27.0021 16.7503 27.0884 16.6728C26.8317 16.1684 26.626 15.6286 26.3096 15.164C24.5862 12.6088 22.0398 10.9894 19.4624 9.49382C17.9979 8.64207 16.2745 8.23943 14.6949 7.5713C14.3188 7.41202 14.0511 7.00274 13.7325 6.7085C14.1374 6.79035 14.54 6.87221 14.9427 6.95407C15.4183 7.10229 15.894 7.25052 16.3718 7.39874V7.38989C16.5245 7.45626 16.6793 7.52484 16.832 7.59121H16.8364C17.2037 7.73723 17.5731 7.88324 17.9404 8.02926C17.9868 8.06023 18.0377 8.06908 18.093 8.06023C18.7058 8.35005 19.3186 8.64207 19.9292 8.93189C19.9691 8.96286 20.0111 8.9695 20.0598 8.9518C21.7057 9.98275 23.3495 11.0159 24.9933 12.0469V12.0314C25.0729 12.1066 25.1504 12.1818 25.23 12.257L25.2189 12.246C25.2964 12.3212 25.3738 12.3986 25.4534 12.4738L25.4446 12.4694C26.6282 13.5756 27.8096 14.6795 28.9932 15.7857L28.9887 15.7835C29.2763 16.1065 29.564 16.4295 29.8516 16.7503C29.8427 16.7989 29.8516 16.841 29.8847 16.8786C29.9555 16.9604 30.0241 17.0401 30.0949 17.1219L30.0861 17.1131C30.1635 17.1905 30.2409 17.268 30.3161 17.3454L30.3029 17.341C30.4555 17.706 30.606 18.071 30.7586 18.4361C29.7343 18.4516 28.7122 18.4693 27.6879 18.4847C26.9357 18.321 26.1857 18.1573 25.4335 17.9914C21.5863 17.102 17.7368 16.2259 13.894 15.3189C10.5932 14.5402 7.30126 13.7238 4.00488 12.9229C4.29912 12.3986 4.59115 11.8721 4.88539 11.3478V11.3522Z" fill="#E8E3D3"/>
<path d="M51.0766 36.3269C52.8243 36.1897 54.572 35.9419 56.3176 35.953C57.6494 35.9618 58.979 36.3025 60.5785 36.537C58.9591 39.3135 57.0565 41.3821 54.4415 42.767C54.3707 42.7825 54.2999 42.7957 54.2291 42.8112C54.0123 42.8776 53.7955 42.944 53.5787 43.0081C53.2358 42.9285 52.8951 42.7913 52.55 42.7802C51.5942 42.7493 50.6319 42.8179 49.6784 42.7471C49.1983 42.7117 48.7337 42.4617 48.2625 42.309C48.2868 42.2161 48.3089 42.1232 48.3333 42.0303C50.4217 41.1232 52.5102 40.2139 54.5986 39.3069C54.5654 39.225 54.53 39.141 54.4968 39.0591C52.2646 39.8224 50.0301 40.5878 47.7979 41.3511C47.7005 41.2029 47.6032 41.0568 47.5059 40.9086C48.4682 39.8932 49.4505 38.8954 50.3797 37.849C50.6983 37.4883 50.8819 37.0083 51.1274 36.5813C51.123 36.4994 51.1186 36.4154 51.1142 36.3335L51.0766 36.3269Z" fill="#E1D8CB"/>
<path d="M8.62455 43.0106C5.79498 41.6942 3.89238 39.431 2.09375 36.7408C5.3503 35.6701 8.42102 35.5594 11.5249 36.5683C11.5338 36.8537 11.4276 37.2541 11.5736 37.4023C12.2395 38.0727 13.0182 38.6302 13.6797 39.3049C14.2571 39.8956 14.7328 40.5859 15.2527 41.2341C15.1885 41.3049 15.1266 41.3757 15.0624 41.4442C12.9762 40.7097 10.89 39.9753 8.80375 39.2408C8.75951 39.3536 8.71305 39.4642 8.6688 39.577C9.59577 39.9863 10.5404 40.3602 11.4453 40.8137C12.3545 41.2695 13.5227 41.3381 14.2726 42.5504C12.6068 42.6301 11.1842 42.6854 9.7639 42.7761C9.38117 42.8004 9.00507 42.9309 8.62677 43.0106H8.62455Z" fill="#E1D8CB"/>
<path d="M34.9624 18.489C35.7124 18.3252 36.4601 18.1593 37.2101 17.9956C36.7499 19.9093 36.292 21.8207 35.792 23.9003C42.8029 22.3539 49.6744 20.8385 56.5481 19.3208C55.8999 20.2035 55.2495 21.0862 54.6012 21.9712C54.1809 22.1172 53.7606 22.261 53.3402 22.407C50.3381 23.0574 47.3337 23.7078 44.3316 24.3561C43.867 24.4556 43.3781 24.4822 42.9423 24.6481C42.6126 24.7742 42.3471 25.0729 42.0551 25.2963L42.0463 25.3052C40.6658 25.0706 39.2897 24.7499 37.8981 24.6282C36.4159 24.4999 34.9159 24.5596 33.4248 24.5375C33.4956 24.1083 33.5288 23.668 33.6416 23.2477C34.0686 21.657 34.5221 20.073 34.9646 18.4845L34.9624 18.489Z" fill="#508098"/>
<path d="M8.625 43.0102C9.00331 42.9283 9.3794 42.8 9.76214 42.7757C11.1825 42.685 12.605 42.6319 14.2709 42.55C13.5209 41.3354 12.355 41.2669 11.4435 40.8133C10.5387 40.362 9.594 39.9859 8.66703 39.5766C8.71128 39.4638 8.75774 39.3532 8.80198 39.2404C10.8882 39.9749 12.9744 40.7094 15.0607 41.4438C15.1248 41.3731 15.1868 41.3023 15.2509 41.2337C14.731 40.5877 14.2554 39.8952 13.678 39.3045C13.0165 38.6298 12.2377 38.0723 11.5718 37.4019C11.4258 37.2537 11.532 36.8533 11.5232 36.5679C11.6979 36.5745 11.8705 36.5811 12.0453 36.5856C13.3439 37.3953 14.6425 38.205 15.939 39.0147V39.0103C16.0828 39.0899 16.2288 39.1718 16.3726 39.2514L16.3615 39.2559C16.5982 39.5722 16.8394 39.8886 17.0739 40.2072C17.8991 41.3244 18.7221 42.446 19.5451 43.5633C17.1624 44.4637 14.6846 44.5079 12.2245 44.1628C10.9944 43.9902 9.82187 43.404 8.625 43.0058V43.0102Z" fill="#D4CCC0"/>
<path d="M51.1281 36.5816C50.8826 37.0086 50.699 37.4886 50.3804 37.8492C49.4512 38.8957 48.4689 39.8912 47.5066 40.9089C47.6039 41.0571 47.7012 41.2031 47.7986 41.3514C50.0308 40.5881 52.2653 39.8226 54.4975 39.0594C54.5307 39.1412 54.5661 39.2253 54.5993 39.3072C52.5109 40.2142 50.4224 41.1235 48.334 42.0306C48.3096 42.1235 48.2875 42.2164 48.2632 42.3093C48.7344 42.462 49.199 42.7119 49.6791 42.7473C50.6326 42.8181 51.5927 42.7473 52.5507 42.7805C52.8958 42.7916 53.2365 42.9288 53.5794 43.0084C52.325 43.4442 51.0994 44.1168 49.8118 44.2628C47.5176 44.5238 45.2013 44.307 42.958 43.6411C43.7721 42.473 44.5841 41.3027 45.3982 40.1346L45.396 40.1368C47.1415 38.951 48.8893 37.763 50.6348 36.5771C50.7985 36.5771 50.9644 36.5794 51.1281 36.5816Z" fill="#D4CCC0"/>
<path d="M50.6343 36.577C48.8888 37.7628 47.141 38.9486 45.3955 40.1366C45.5105 39.8336 45.5393 39.411 45.7583 39.2473C46.7539 38.5062 47.8269 37.8668 48.8136 37.1146C48.9883 36.9819 48.8932 36.4907 48.922 36.1633C50.7936 34.9531 51.6011 33.0815 52.1188 31.0285C52.4152 28.8958 51.9794 26.9113 50.9108 25.0552C51.5945 24.6326 51.6763 24.6326 51.8201 25.3229C52.1343 26.8184 52.3931 28.325 52.6851 29.8272C52.7228 30.013 52.8356 30.1856 53.1497 30.3758C53.5126 29.0484 53.8732 27.7188 54.236 26.3914C54.0966 27.4489 54.1209 28.5595 53.7869 29.5506C53.1696 31.3824 52.3378 33.1413 51.6033 34.9355C51.4153 35.3934 51.2515 35.8624 51.0768 36.3292L51.1144 36.3381C50.9551 36.4199 50.7936 36.4996 50.6343 36.5814V36.577Z" fill="#6B97AF"/>
<path d="M15.9407 39.0195C14.642 38.2097 13.3434 37.4 12.047 36.5903C11.0647 34.4466 10.0802 32.3028 9.0957 30.1569C9.1665 30.1569 9.2395 30.1569 9.3103 30.1569L9.97621 31.4843L10.0271 31.5772L10.0691 31.5351L9.97621 31.4843C10.0514 30.3427 10.0669 29.1945 10.2262 28.0662C10.297 27.5662 10.6554 27.1061 10.8811 26.626C10.4585 28.2255 10.1952 29.8316 10.6709 31.471C11.443 32.8847 12.1885 34.3138 13.0093 35.6988C13.1531 35.9399 13.6199 35.9886 13.9363 36.1279C13.8146 36.3425 13.6907 36.5549 13.5336 36.8315C14.1664 37.254 14.8146 37.6279 15.3876 38.0947C15.6486 38.3071 15.7592 38.7053 15.9384 39.0195H15.9407Z" fill="#6B97AF"/>
<path d="M45.3974 40.1343C44.5833 41.3024 43.7714 42.4727 42.9572 43.6408C38.0945 46.4549 32.8845 47.373 27.3691 46.3753C25.8736 46.1054 24.4289 45.5479 22.96 45.1231C23.3272 45.0877 23.7586 44.9107 24.0551 45.039C28.0815 46.8067 32.2606 46.5744 36.3999 45.7912C38.3821 45.4151 40.4639 44.9063 42.0347 43.4284C42.9019 42.6099 43.6541 41.6718 44.4837 40.8113C44.7448 40.5413 45.0899 40.3577 45.3974 40.1343Z" fill="#6B97AF"/>
<path d="M6.87655 7.80762C8.94287 8.2523 11.0313 8.61069 13.0644 9.1682C14.5755 9.58191 16.0223 10.239 17.4869 10.812C17.7745 10.9248 18.0134 11.1571 18.2214 11.4956C14.2038 9.93809 10.0446 9.26554 5.78809 9.12174C6.15091 8.6837 6.51152 8.24566 6.87434 7.80762H6.87655Z" fill="#DDD0C0"/>
<path d="M55.9814 31.004C57.165 29.6876 58.7092 29.7164 60.4459 29.723C59.8198 31.4 59.0367 32.7074 57.5411 33.4729C57.1451 33.3579 56.7469 33.245 56.3244 33.1212C56.2115 32.4243 56.0965 31.7119 55.9837 31.0017L55.9814 31.004ZM56.8177 32.0128C56.7912 32.0747 56.7292 32.1499 56.7469 32.192C56.7646 32.2362 56.873 32.2827 56.9173 32.2672C56.9615 32.2517 57.0102 32.1411 56.9925 32.0968C56.9748 32.0526 56.8797 32.0393 56.8177 32.0128Z" fill="#E0D7CC"/>
<path d="M4.62663 33.0458C3.30808 32.4153 2.7373 31.2295 2.12891 29.8335C3.82134 29.5769 5.22396 29.7517 6.44517 30.7959C6.63764 31.3467 6.83011 31.8976 7.07347 32.5989C6.51375 32.3666 6.09783 32.1963 5.68191 32.0237C5.65315 32.0768 5.62218 32.1321 5.59342 32.1852C5.86111 32.4706 6.1288 32.756 6.52481 33.183C5.74828 33.1277 5.18635 33.0878 4.62663 33.048V33.0458Z" fill="#DED7CB"/>
<path d="M56.6539 9.13964C53.2402 9.57989 49.8266 10.0179 46.3223 10.4693C49.3775 8.81443 52.6584 8.27462 56.0079 7.99365C56.2247 8.37417 56.4393 8.75691 56.6561 9.13743L56.6539 9.13964Z" fill="#DDD0C0"/>
<path d="M42.3224 3.11771C41.86 3.04249 41.318 3.0978 40.9485 2.87435C38.4353 1.34784 35.6787 0.774849 32.7983 0.750514C30.566 0.730603 28.3338 0.863342 26.1016 0.929712C27.0595 0.72839 28.0086 0.431937 28.9776 0.345656C33.4354 -0.0547757 37.7163 0.611137 41.7361 2.65533C41.9551 2.76595 42.1299 2.96284 42.3246 3.11771H42.3224Z" fill="#6B97AF"/>
<path d="M4.62695 33.0461C5.18889 33.0859 5.74861 33.1257 6.52513 33.1811C6.12691 32.7563 5.85922 32.4709 5.59374 32.1833C5.6225 32.1302 5.65348 32.0749 5.68224 32.0218C6.09815 32.1943 6.51186 32.3647 7.07379 32.597C6.82822 31.8957 6.63796 31.3448 6.44549 30.7939C7.8105 31.5063 8.36801 32.785 8.91666 34.1169C7.42998 34.5748 5.46985 34.0505 4.62695 33.0461Z" fill="#D8CFC3"/>
<path d="M55.9818 31.0044C56.0969 31.7146 56.2119 32.4269 56.3225 33.1238C56.7451 33.2455 57.1433 33.3605 57.5393 33.4756C56.4774 34.157 55.181 34.4335 53.9354 34.2455C53.7938 33.126 54.7031 31.6858 55.9818 31.0066V31.0044Z" fill="#D8CFC3"/>
<path d="M9.30983 30.1569C9.23904 30.1569 9.16603 30.1569 9.09524 30.1569C8.75011 28.1193 8.37623 26.0862 8.07314 24.0442C7.97137 23.3606 8.04438 22.6504 8.03774 21.9535C8.09526 21.9491 8.15057 21.9469 8.20809 21.9491C8.2811 22.0332 8.35189 22.115 8.4249 22.1969C8.37402 24.8893 8.69038 27.5419 9.30983 30.1591V30.1569Z" fill="#6D97AD"/>
<path d="M19.5449 43.5701C18.7219 42.4507 17.8989 41.3312 17.0737 40.214C16.8392 39.8954 16.6003 39.5791 16.3613 39.2627C17.1932 39.9684 18.1179 40.5923 18.8325 41.402C19.5338 42.1963 20.0227 43.1763 20.6046 44.0767C20.2506 43.9086 19.8988 43.7382 19.5449 43.5701Z" fill="#6B97AF"/>
<path d="M19.7148 3.39626C19.7104 3.43165 19.7192 3.48254 19.6993 3.50245C18.602 4.67498 17.4029 5.70372 15.8477 6.22804C17.1352 5.28337 18.425 4.33871 19.7148 3.39404V3.39626Z" fill="#6D97AD"/>
<path d="M8.21089 21.9468C8.15337 21.9468 8.09806 21.9468 8.04054 21.9513C7.39454 21.0752 6.74854 20.1969 6.10254 19.3208C6.36138 19.3938 6.61801 19.4668 6.87686 19.5376C7.01402 19.7765 7.10252 20.1659 7.2972 20.2301C8.18435 20.5243 8.2485 21.1946 8.21089 21.9468Z" fill="#5D8294"/>
<path d="M26.1131 0.916274C25.0269 1.3698 23.9428 1.83218 22.8477 2.25916C22.7305 2.30562 22.5336 2.15297 22.3721 2.09102C23.6198 1.69944 24.8654 1.30786 26.1131 0.914062V0.916274Z" fill="#6B97AF"/>
<path d="M53.3379 22.407C53.7582 22.261 54.1786 22.1172 54.5989 21.9712C54.5458 23.2212 54.4927 24.4711 54.4418 25.7211C54.4418 25.3583 54.3976 24.9866 54.4507 24.6326C54.6011 23.6194 54.4064 22.803 53.3401 22.407H53.3379Z" fill="#6B97AF"/>
<path d="M47.7252 6.96066C47.2429 7.10667 46.7606 7.25269 46.2783 7.40091C46.4376 7.0049 46.5947 6.6089 46.754 6.21289C47.0792 6.46288 47.4022 6.71288 47.7252 6.96287V6.96066Z" fill="#6D97AD"/>
<path d="M21.6688 2.40088C21.5095 3.69288 20.337 2.99821 19.7197 3.392C20.3702 3.06237 21.0184 2.73052 21.6688 2.40088Z" fill="#6D97AD"/>
<path d="M20.6172 44.0832C21.553 43.9549 22.2632 44.3354 22.8273 45.0544C22.0906 44.7314 21.3539 44.4084 20.6172 44.0832Z" fill="#6B97AF"/>
<path d="M16.3764 7.39627C15.9008 7.24804 15.4229 7.09981 14.9473 6.95159C15.1176 6.78787 15.288 6.62416 15.4583 6.46045C15.7636 6.77239 16.0711 7.08433 16.3764 7.39405V7.39627Z" fill="#6D97AD"/>
<path d="M43.1881 3.58867C42.8939 3.4316 42.5996 3.27231 42.3076 3.11523C42.6019 3.27231 42.8961 3.4316 43.1881 3.58867Z" fill="#6B97AF"/>
<path d="M13.2931 6.48906C13.2355 6.6041 13.1802 6.71693 13.1227 6.83197C13.032 6.71472 12.9413 6.59968 12.8506 6.48242C12.9988 6.48463 13.147 6.48685 13.2953 6.48906H13.2931Z" fill="#E8E3D3"/>
<path d="M46.5171 6.01347C46.3622 5.86745 46.2073 5.72144 46.0547 5.57764C46.2096 5.72365 46.3644 5.86966 46.5171 6.01347Z" fill="#6B97AF"/>
<path d="M45.5462 5.16451C45.482 5.13353 45.4312 5.08708 45.3936 5.02734C45.4444 5.0738 45.4953 5.11805 45.5462 5.16451Z" fill="#6B97AF"/>
<path d="M54.2295 42.8089C54.3003 42.7934 54.3711 42.7801 54.4419 42.7646C54.3711 42.7757 54.2981 42.7912 54.2295 42.8089Z" fill="#D4CCC0"/>
<path d="M21.4954 34.0837C18.1305 32.243 18.0508 28.8206 19.4092 26.8162C19.7941 26.2498 20.3384 25.7941 20.8096 25.2875C21.3715 25.126 21.9312 24.9667 22.4932 24.8052C27.4554 24.8207 32.4177 24.8406 37.38 24.845C38.8843 24.845 40.3954 24.7322 41.6608 25.8206C41.8444 25.9777 42.2205 25.9113 42.5081 25.949V25.9445C42.7117 26.1746 42.9152 26.4047 43.121 26.6326L43.1453 26.6635C43.1918 26.9511 43.205 27.2498 43.2891 27.5263C43.8024 29.2564 43.913 30.9201 42.6276 32.4112C42.5059 32.5506 42.5458 32.8293 42.5104 33.0439C41.8511 33.4266 41.1918 33.8094 40.5347 34.1921C40.5215 34.2474 40.5104 34.3005 40.5016 34.358L40.5082 34.3536C40.4086 34.3536 40.3113 34.3536 40.2117 34.3514C40.0171 34.358 39.8224 34.3625 39.6277 34.3691C38.1521 34.4532 36.5658 34.3757 35.7959 33.0041C34.6123 30.8957 32.8181 30.8913 30.8514 31.0351C30.3403 31.0727 29.8204 31.0749 29.3094 31.0329C28.6036 30.9754 28.1501 31.232 27.7917 31.8581C27.1391 32.9952 26.2541 33.9266 24.9334 34.2629C24.2431 34.4377 23.5197 34.4731 22.8095 34.5704C22.7321 34.5726 22.6547 34.5748 22.5772 34.577C22.3649 34.493 22.1547 34.4111 21.9423 34.3271V34.3381C21.7941 34.2518 21.6436 34.1633 21.4954 34.0771V34.0837ZM24.575 28.8338C24.294 29.5396 24.0108 30.2431 23.7608 30.8714C24.9511 30.5705 25.336 29.7475 24.5816 28.8294C24.1347 28.5484 23.6657 28.0175 23.2454 28.0529C22.7786 28.0927 22.3538 28.648 21.9113 28.9776C21.9843 29.1391 22.0574 29.3006 22.1326 29.4621C22.8339 28.4511 23.6547 28.2896 24.575 28.836V28.8338ZM41.6099 31.7032C41.5015 31.7253 41.3688 31.7165 41.2914 31.7762C39.7826 32.9443 38.3268 32.889 36.9109 31.6081C36.8578 31.5594 36.7229 31.6015 36.4818 31.6015C37.2273 32.7983 38.2383 33.1169 39.4396 33.0284C40.3843 32.9598 41.2737 32.7806 41.6122 31.7077C42.8068 31.0771 43.1165 29.1037 42.413 28.3427C42.1719 29.3449 41.8909 30.5241 41.6077 31.7032H41.6099ZM40.3467 26.3981C40.3755 26.345 40.4042 26.2941 40.433 26.241C39.9595 26.1459 39.4861 25.9711 39.0127 25.9689C34.1101 25.949 29.2054 25.9069 24.3029 25.9954C23.2542 26.0153 22.0883 26.3317 21.2012 26.8759C19.7654 27.7586 19.5375 30.1701 20.5419 31.5196C21.668 33.0351 24.0639 33.5218 25.4555 32.4333C26.1811 31.8647 26.9311 31.1966 26.6103 30.0926C26.4156 30.2674 26.3626 30.5019 26.2741 30.721C25.7011 32.1811 23.8029 33.0616 22.4556 32.4997C21.0419 31.9112 20.1415 30.3626 20.3915 28.9511C20.6459 27.5175 22.0795 26.3981 23.6856 26.3981C27.8891 26.3936 32.0925 26.3981 36.2937 26.3981C37.6454 26.3981 38.995 26.3981 40.3467 26.3981ZM39.4463 30.9643C38.8268 30.3117 37.5636 30.086 38.2848 28.9975C39.1874 27.637 39.8666 28.9843 40.6763 29.4621C40.2848 28.3294 39.4861 27.6834 38.8445 28.0684C38.3268 28.3781 37.7361 29.0551 37.714 29.5927C37.6808 30.4134 38.3136 30.9886 39.4463 30.9621V30.9643ZM41.798 27.7321C41.8931 27.6215 41.986 27.5131 42.0812 27.4025C41.7316 27.1281 41.3843 26.856 41.0347 26.5817C40.9684 26.6657 40.8998 26.7476 40.8334 26.8317C41.1542 27.1325 41.4772 27.4312 41.798 27.7321ZM36.0548 29.8781C35.9685 29.9046 35.88 29.9312 35.7937 29.9599C35.9021 30.3714 36.0105 30.7829 36.1189 31.1966C36.2472 31.159 36.3756 31.1214 36.5039 31.0838C36.3557 30.6833 36.2052 30.2807 36.057 29.8803L36.0548 29.8781Z" fill="#E1D8CC"/>
<path d="M31.4428 44.7626C31.2924 44.7626 31.1397 44.7604 30.9893 44.7582C30.7703 44.683 30.5491 44.61 30.33 44.5347C30.3367 44.4639 30.3389 44.3909 30.3367 44.3179C30.3367 41.7914 30.3168 39.265 30.3477 36.7407C30.3566 36.0217 30.0646 35.5925 29.3964 35.5062C28.6553 35.4111 28.3411 35.8624 28.3434 36.5703C28.3411 38.8424 28.3323 41.1123 28.3434 43.3843C28.3456 43.8976 28.3456 44.3622 27.6509 44.3555C27.2195 44.2538 26.7903 44.152 26.3589 44.0524C26.3545 43.8445 26.3523 43.6365 26.3478 43.4286C26.35 41.2561 26.3235 39.0813 26.3722 36.9088C26.3921 36.0549 26.0956 35.577 25.2461 35.462C25.4651 35.2429 25.6642 34.9974 25.9054 34.8093C26.5071 34.3425 27.3567 34.0284 27.6996 33.4222C28.5911 31.847 29.9318 31.7784 31.4362 31.92C31.8366 31.9576 32.2481 31.951 32.6508 31.92C33.5468 31.8536 34.3034 31.9067 34.5755 33.0284C34.6618 33.3868 35.1684 33.639 35.4759 33.9465C35.9759 34.4487 36.4715 34.9553 36.967 35.462C36.7502 35.8292 36.5334 36.1987 36.3166 36.5659C36.3144 39.0658 36.31 41.5658 36.3078 44.0635C35.8697 44.1653 35.4339 44.2648 34.9958 44.3666C34.841 44.0082 34.5578 43.652 34.5489 43.2892C34.5047 41.3092 34.5335 39.3269 34.5224 37.3469C34.5224 37.0217 34.5622 36.6146 34.3919 36.3911C34.1131 36.0261 33.6972 35.5704 33.3034 35.5328C32.7592 35.4797 32.2437 35.8381 32.3278 36.5703C32.33 39.2318 32.3322 41.891 32.3344 44.5524C32.2725 44.5812 32.2083 44.59 32.1397 44.579C32.0579 44.6055 31.9738 44.6343 31.8919 44.6608L31.8676 44.7493L31.4406 44.7626H31.4428Z" fill="#F7EFE4"/>
<path d="M22.4931 24.8032C21.9312 24.9647 21.3714 25.124 20.8095 25.2855C20.5772 25.0975 20.3692 24.7966 20.106 24.7346C16.3273 23.8674 12.542 23.0333 8.75672 22.1949C8.65052 22.1705 8.53548 22.1949 8.42487 22.1949C8.35186 22.113 8.28107 22.0289 8.20806 21.9471C8.24788 21.1949 8.18372 20.5246 7.29437 20.2303C7.09968 20.1662 7.01119 19.7768 6.87402 19.5379C13.5331 20.9847 20.1945 22.4316 26.92 23.8917C26.4111 21.8719 25.9222 19.9317 25.4311 17.9937C26.181 18.1574 26.9332 18.3211 27.6854 18.487C27.8248 19.018 27.9664 19.5467 28.0991 20.0777C28.4752 21.5666 28.8491 23.0555 29.2252 24.5422C27.9487 24.5621 26.6722 24.5643 25.3979 24.6107C24.4267 24.6461 23.4599 24.7368 22.4909 24.8032H22.4931Z" fill="#508098"/>
<path d="M10.6709 31.4707C10.1953 29.8314 10.4586 28.2253 10.8811 26.6257C10.9431 26.4709 11.0028 26.3182 11.0647 26.1634C11.2771 25.805 11.4895 25.4488 11.7926 24.9399C12.4784 25.8204 13.1156 26.524 13.62 27.3116C14.8899 29.285 15.131 31.4376 14.5691 33.6941V30.9132C14.4297 30.8933 14.2903 30.8712 14.1532 30.8513C14.0138 31.3336 13.8965 31.8269 13.7218 32.2959C13.6333 32.5349 13.4718 32.8534 13.2749 32.9154C13.0381 32.9906 12.7284 32.8313 12.1886 32.7185C11.974 32.4442 11.5669 31.8955 11.1223 31.3778C11.0736 31.3203 10.8258 31.4331 10.6709 31.4663V31.4707Z" fill="#D9D5CC"/>
<path d="M50.9091 25.0549C51.9776 26.9111 52.4135 28.8956 52.117 31.0282C51.4754 31.5924 50.8361 32.1565 50.1679 32.745C50.0485 32.3977 49.9445 32.0902 49.8228 31.7362C49.5728 32.0703 49.3914 32.3136 49.2056 32.5614C48.7189 31.6986 48.2808 30.9265 47.8428 30.1522C48.2034 29.1986 48.5662 28.2451 48.9268 27.2916H48.9246C49.5219 26.5571 50.1171 25.8204 50.7144 25.0859C50.7808 25.0859 50.8471 25.0771 50.9091 25.0527V25.0549Z" fill="#DCD6CD"/>
<path d="M39.6261 34.3688C39.8208 34.3621 40.0155 34.3577 40.2102 34.3511C40.2124 37.1585 40.2146 39.966 40.2168 42.7734C40.177 42.8243 40.1549 42.8818 40.1504 42.946L40.0619 42.9504C39.4712 43.1163 38.8828 43.2823 38.2921 43.4482C38.2943 42.3155 38.3275 41.1805 38.2921 40.0478C38.2456 38.5965 38.1438 37.1475 38.0664 35.6962C38.3429 35.5479 38.6195 35.278 38.8982 35.2758C39.5819 35.2714 39.6637 34.8953 39.6239 34.3688H39.6261Z" fill="#F3EEE7"/>
<path d="M47.8452 30.1523C48.2832 30.9267 48.719 31.6988 49.208 32.5616C49.3938 32.3138 49.5752 32.0726 49.8252 31.7364C49.9469 32.0903 50.0509 32.3979 50.1703 32.7452C50.8384 32.1567 51.48 31.5926 52.1194 31.0284C51.6017 33.0815 50.7942 34.9531 48.9226 36.1632C48.8827 36.1212 48.8341 36.1013 48.7743 36.0991C48.0686 34.1788 47.5553 32.2275 47.8452 30.1523Z" fill="#CECCC3"/>
<path d="M10.6712 31.471C10.826 31.4378 11.0738 31.325 11.1225 31.3825C11.5649 31.9002 11.9742 32.4466 12.1888 32.7232C12.7286 32.836 13.0406 32.9953 13.2751 32.9201C13.472 32.8581 13.6335 32.5373 13.722 32.3006C13.899 31.8316 14.014 31.3382 14.1534 30.856C14.2927 30.8759 14.4321 30.898 14.5693 30.9179C14.5693 31.8449 14.5693 32.7718 14.5693 33.6988C14.4985 33.9975 14.4277 34.2961 14.3547 34.5948C14.295 34.6656 14.2352 34.7342 14.1755 34.805C14.0958 35.2452 14.014 35.6877 13.9343 36.1279C13.618 35.9908 13.1512 35.9399 13.0074 35.6988C12.1844 34.316 11.4388 32.8847 10.6689 31.471H10.6712Z" fill="#D4CCC0"/>
<path d="M14.3584 34.5947C14.4292 34.2961 14.5022 33.9974 14.573 33.6987C15.1327 31.44 14.8915 29.2874 13.6216 27.3162C13.115 26.5286 12.4801 25.8251 11.7943 24.9445C11.4912 25.4534 11.2788 25.8096 11.0664 26.168C11.1925 25.6901 11.3186 25.2122 11.4447 24.7344C11.8363 24.8428 12.3186 24.845 12.6084 25.0795C14.8451 26.8936 16.0242 31.7099 14.8384 34.4266C14.7699 34.5837 14.5309 34.6677 14.3738 34.7872C14.3849 34.7231 14.3783 34.6589 14.3606 34.597L14.3584 34.5947Z" fill="#6B97AF"/>
<path d="M47.845 30.1523C47.5552 32.2274 48.0684 34.1787 48.7742 36.099C48.595 35.9862 48.3538 35.9176 48.241 35.7583C46.845 33.7827 47.0087 29.3381 48.5419 27.451C48.6193 27.3559 48.7963 27.3448 48.929 27.2939C48.5684 28.2475 48.2078 29.201 47.845 30.1545V30.1523Z" fill="#6B97AF"/>
<path d="M38.2938 43.4509C38.8844 43.285 39.4729 43.119 40.0636 42.9531C39.6654 43.327 39.3114 43.9575 38.8645 44.0305C36.5482 44.4111 34.2916 45.2893 31.8802 44.973C31.8758 44.9 31.8736 44.8248 31.8691 44.7495C31.8691 44.7495 31.8935 44.661 31.8913 44.6633C31.9731 44.6367 32.0572 44.608 32.139 44.5814C32.2054 44.5925 32.2718 44.5814 32.3315 44.5549C32.8404 44.5438 33.3514 44.5349 33.8602 44.5239C34.2386 44.473 34.6146 44.4221 34.993 44.369C35.431 44.2672 35.8668 44.1677 36.3049 44.0659C36.7518 43.9354 37.1964 43.8049 37.6433 43.6743C37.8601 43.6013 38.0769 43.5261 38.2938 43.4531V43.4509Z" fill="#6D97AD"/>
<path d="M26.3565 44.0527C26.7879 44.1544 27.2171 44.2562 27.6485 44.3557C28.5423 44.4155 29.4361 44.4752 30.3299 44.5349C30.5489 44.6102 30.7701 44.6832 30.9892 44.7584C29.987 44.8248 28.9582 45.0571 27.9848 44.9177C26.4096 44.692 24.861 44.254 23.3256 43.8226C23.0225 43.7385 22.8256 43.2783 22.5801 42.9929L22.6221 42.9531C22.7549 42.9708 22.8854 42.9885 23.0181 43.0062V42.9974C23.2482 43.0748 23.4783 43.1544 23.7084 43.2319L23.7615 43.2606L23.8168 43.2385C24.0004 43.3071 24.1818 43.3779 24.3654 43.4465C25.0291 43.6478 25.6928 43.8491 26.3587 44.0527H26.3565Z" fill="#6B97AF"/>
<path d="M21.9404 34.3315C22.1528 34.4156 22.363 34.4975 22.5754 34.5815C22.5577 37.3093 22.5378 40.0371 22.5201 42.765C22.467 42.765 22.4139 42.7649 22.3608 42.7716C22.2878 42.4287 22.1572 42.088 22.155 41.7429C22.1351 39.8823 22.1617 38.0239 22.1351 36.1634C22.1263 35.5527 22.009 34.9421 21.9426 34.3315H21.9404Z" fill="#6B90A6"/>
<path d="M42.5091 33.0439C42.5444 32.8293 42.5068 32.5528 42.6263 32.4112C43.9117 30.9179 43.7988 29.2564 43.2878 27.5264C43.2059 27.2476 43.1904 26.9512 43.144 26.6636C44.6594 28.7188 44.3873 31.4444 42.5068 33.0439H42.5091Z" fill="#C8D5D7"/>
<path d="M40.2166 42.7759C40.2166 39.9684 40.2122 37.161 40.21 34.3535C40.3073 34.3535 40.4069 34.3535 40.5042 34.3557C40.5042 37.161 40.5042 39.9662 40.5042 42.7714C40.4091 42.7714 40.3117 42.7737 40.2166 42.7759Z" fill="#6B90A6"/>
<path d="M50.7136 25.0884C50.1163 25.8229 49.5212 26.5596 48.9238 27.2941C49.2225 26.3184 49.2667 25.1326 50.7136 25.0884Z" fill="#6B97AF"/>
<path d="M40.5332 34.1941C41.1925 33.8114 41.8495 33.4286 42.5088 33.0459C42.0619 33.4131 41.6128 33.7804 41.1659 34.1454C40.9558 34.1609 40.7434 34.1786 40.5332 34.1941Z" fill="#C8D5D7"/>
<path d="M43.1219 26.6324C42.9161 26.4023 42.7126 26.1722 42.5068 25.9443C42.5798 25.9443 42.6506 25.9488 42.7214 25.962C42.8542 26.1855 42.9891 26.4089 43.1219 26.6346V26.6324Z" fill="#C8D5D7"/>
<path d="M40.5332 34.1942C40.7434 34.1787 40.9557 34.161 41.1659 34.1455C40.9447 34.2163 40.7212 34.2871 40.5 34.3601C40.5088 34.3048 40.5199 34.2495 40.5332 34.1942Z" fill="#6B90A6"/>
<path d="M31.8694 44.749C31.8738 44.8242 31.876 44.8973 31.8804 44.9725C31.7344 44.9017 31.5884 44.8331 31.4424 44.7623C31.584 44.7579 31.7278 44.7534 31.8694 44.749Z" fill="#6B97AF"/>
<path d="M42.721 25.9603C42.6502 25.947 42.5794 25.9426 42.5064 25.9426V25.947C42.5042 25.874 42.502 25.801 42.502 25.728C42.575 25.8055 42.648 25.8829 42.721 25.9603Z" fill="#508098"/>
<path d="M22.3604 42.7713C22.4134 42.7669 22.4665 42.7646 22.5196 42.7646C22.5705 42.8177 22.6037 42.8819 22.6214 42.9527L22.5794 42.9925C22.5064 42.9195 22.4334 42.8443 22.3604 42.7713Z" fill="#6B97AF"/>
<path d="M40.2168 42.7759C40.3119 42.7759 40.4092 42.7737 40.5044 42.7715C40.3871 42.8312 40.2699 42.8887 40.1504 42.9485C40.1548 42.8843 40.1769 42.8268 40.2168 42.7759Z" fill="#6D97AD"/>
<path d="M42.0508 25.2962C42.1283 25.3647 42.2035 25.4355 42.2809 25.5041C42.2013 25.4377 42.1216 25.3714 42.042 25.3028L42.0508 25.2939V25.2962Z" fill="#508098"/>
<path d="M14.3589 34.5947C14.3788 34.6567 14.3832 34.7208 14.3722 34.785C14.308 34.7938 14.2438 34.8005 14.1797 34.8049C14.2394 34.7341 14.2992 34.6655 14.3589 34.5947Z" fill="#D9D5CC"/>
<path d="M28.9096 9.69483C27.5246 10.1882 26.3344 9.99349 25.5911 9.08201C24.8632 8.19044 24.8897 7.17941 25.3101 6.16616C25.4185 5.9051 25.6265 5.51795 25.8256 5.4914C27.2304 5.31663 28.1574 4.24364 29.3587 3.71268C30.4029 3.25252 31.4183 3.61755 32.4161 4.0932C32.8564 4.30338 33.4493 4.38523 33.9227 4.28347C35.0311 4.04896 36.0067 4.23701 36.7523 5.05336C37.4757 5.84758 37.7699 6.80774 37.3961 7.90948C36.9381 9.25679 36.0333 9.84084 34.6196 9.69483C34.2523 9.65722 33.7922 9.67049 33.5046 9.85854C31.7059 11.0355 30.5799 11.0178 28.9118 9.69262L28.9096 9.69483Z" fill="#F6F9FA"/>
<path d="M29.2283 24.5442C28.8522 23.0553 28.4783 21.5664 28.1022 20.0797C27.9672 19.5488 27.8256 19.02 27.6885 18.4891C28.7128 18.4736 29.7349 18.4559 30.7592 18.4404C30.9096 18.4293 31.0579 18.4183 31.2083 18.4094C31.3499 18.3608 31.4937 18.3143 31.6353 18.2656C32.7437 18.3408 33.852 18.4161 34.9604 18.4913C34.5179 20.0775 34.0644 21.6616 33.6374 23.2544C33.5246 23.6726 33.4914 24.1128 33.4206 24.5442C32.0224 24.5442 30.6242 24.5464 29.2283 24.5486V24.5442Z" fill="#2D5569"/>
<path d="M43.1748 8.7085C40.7877 10.3346 38.3696 11.9208 36.0268 13.611C35.1728 14.2283 34.5025 15.0977 33.737 15.8366C33.5114 16.0534 33.2393 16.2216 32.9893 16.4118C33.3587 15.8588 33.6441 15.2194 34.1131 14.7703C35.1529 13.7747 36.2901 12.881 37.3675 11.9252C37.5113 11.7969 37.5467 11.5447 37.6329 11.3522C38.1108 11.3744 38.5887 11.3987 38.5179 10.6885C39.4316 10.1797 40.3187 9.61555 41.27 9.18415C41.8563 8.91867 42.5377 8.85893 43.177 8.7085H43.1748Z" fill="#6D97AD"/>
<path d="M24.996 12.0492C23.3522 11.0182 21.7063 9.98505 20.0625 8.9541C20.6023 9.1156 21.1974 9.18639 21.6731 9.46072C22.6731 10.0359 23.6244 10.7018 24.569 11.37C24.7703 11.5116 24.8566 11.8191 24.996 12.0492Z" fill="#6D97AD"/>
<path d="M28.9958 15.788C27.8122 14.6818 26.6309 13.5756 25.4473 12.4717C26.3521 13.1088 27.299 13.6929 28.1397 14.4053C28.5335 14.7393 28.7171 15.319 28.9958 15.788Z" fill="#6D97AD"/>
<path d="M38.5179 10.6882C38.5887 11.3983 38.1108 11.374 37.633 11.3519C37.3741 10.7877 37.1153 10.2214 36.8564 9.65723C36.6905 9.75678 36.5224 9.85413 36.3564 9.95368C36.5954 9.9758 36.8542 9.94926 37.0688 10.0333C37.5622 10.2236 38.0356 10.4669 38.5157 10.6904L38.5179 10.6882Z" fill="#5992C0"/>
<path d="M45.8222 7.59529C44.9395 7.96917 44.0568 8.34084 43.1719 8.71473C43.8002 7.73909 44.7581 7.5444 45.8222 7.59529Z" fill="#6D97AD"/>
<path d="M19.9319 8.93397C19.3191 8.64416 18.7085 8.35213 18.0957 8.06231C18.8855 7.98046 19.6112 8.02913 19.9319 8.93397Z" fill="#6D97AD"/>
<path d="M31.2105 18.4074C31.0601 18.4185 30.9118 18.4295 30.7614 18.4384C30.6088 18.0733 30.4583 17.7083 30.3057 17.3433C30.9981 17.3654 31.2968 17.7216 31.2105 18.4074Z" fill="#6D97AD"/>
<path d="M29.854 16.7523C29.5664 16.4293 29.2788 16.1063 28.9912 15.7855C29.7014 15.7302 29.9602 16.0797 29.854 16.7523Z" fill="#6D97AD"/>
<path d="M46.2788 7.38965C46.1239 7.45823 45.9713 7.52681 45.8164 7.59761C45.9713 7.52903 46.1239 7.46044 46.2788 7.38965Z" fill="#6D97AD"/>
<path d="M25.4562 12.4759C25.3788 12.4007 25.3013 12.3233 25.2217 12.248C25.2991 12.3233 25.3765 12.4007 25.4562 12.4759Z" fill="#6D97AD"/>
<path d="M30.319 17.3475C30.2415 17.2701 30.1641 17.1927 30.0889 17.1152C30.1663 17.1927 30.2437 17.2701 30.319 17.3475Z" fill="#6D97AD"/>
<path d="M45.389 11.1462C44.493 11.6307 43.597 12.1174 42.701 12.6019C42.6368 12.4913 42.5727 12.3806 42.5107 12.27C43.3913 11.8165 44.2718 11.3608 45.1523 10.9072C45.2253 10.9802 45.3005 11.0555 45.3735 11.1285L45.389 11.1439V11.1462Z" fill="#DED7CB"/>
<path d="M45.3674 10.8875C45.5289 10.8388 45.6882 10.7858 45.8519 10.7526C45.8696 10.7481 45.9117 10.861 45.9426 10.9207C45.7568 10.9959 45.571 11.0711 45.3874 11.1464L45.3719 11.1309C45.3719 11.049 45.3674 10.9694 45.3652 10.8875H45.3674Z" fill="#DED7CB"/>
<path d="M45.3669 10.8877C45.3669 10.9696 45.3714 11.0492 45.3736 11.131C45.3006 11.058 45.2254 10.9828 45.1523 10.9098C45.2254 10.9054 45.2961 10.8965 45.3669 10.8877Z" fill="#DDD0C0"/>
<path d="M50.6348 36.5773C50.7941 36.4955 50.9556 36.4158 51.1148 36.334C51.1193 36.4158 51.1237 36.4999 51.1281 36.5818C50.9644 36.5818 50.7985 36.5795 50.6348 36.5773Z" fill="#FEFEFE"/>
<path d="M29.2285 24.544C30.6267 24.544 32.0227 24.5418 33.4208 24.5396C34.912 24.5617 36.4119 24.4997 37.8942 24.628C39.2857 24.7497 40.6596 25.0705 42.0423 25.305C42.1219 25.3714 42.2016 25.44 42.2812 25.5063C42.3565 25.5793 42.4295 25.6546 42.5047 25.7276C42.5047 25.8006 42.5047 25.8736 42.5091 25.9466C42.2215 25.909 41.8454 25.9754 41.6618 25.8183C40.3963 24.7298 38.8831 24.8449 37.3809 24.8426C32.4187 24.8382 27.4564 24.8161 22.4941 24.8028C23.4631 24.7364 24.4321 24.6457 25.4011 24.6103C26.6754 24.5639 27.952 24.5639 29.2285 24.5418V24.544Z" fill="#C8D5D7"/>
<path d="M9.97656 31.4839L10.0695 31.5348L10.0274 31.5768L9.97656 31.4839Z" fill="#5995BA"/>
<path d="M56.8181 32.013C56.88 32.0395 56.9751 32.0528 56.9928 32.097C57.0105 32.1413 56.9619 32.2497 56.9176 32.2674C56.8734 32.2851 56.765 32.2364 56.7473 32.1922C56.7296 32.1479 56.7915 32.0727 56.8181 32.0107V32.013Z" fill="#D8CFC3"/>
<path d="M39.6262 34.3693C39.666 34.8958 39.582 35.2719 38.9006 35.2764C38.6218 35.2764 38.3453 35.5485 38.0687 35.6967C37.7015 35.6171 37.3342 35.5396 36.967 35.46C36.4692 34.9556 35.9759 34.4467 35.4759 33.9445C35.1684 33.637 34.6617 33.3848 34.5755 33.0264C34.3033 31.907 33.5467 31.8539 32.6507 31.918C32.2481 31.9468 31.8388 31.9557 31.4362 31.918C29.9318 31.7765 28.5911 31.8473 27.6995 33.4202C27.3566 34.0264 26.5071 34.3405 25.9053 34.8073C25.662 34.9954 25.4629 35.241 25.2461 35.46C25.1753 35.4666 25.1023 35.4733 25.0293 35.4755C24.881 35.4733 24.7328 35.4711 24.5846 35.4688C24.0669 35.3936 23.5492 35.3184 23.0315 35.2432C22.9585 35.0197 22.8855 34.7941 22.8125 34.5706C23.5227 34.4733 24.2461 34.4379 24.9363 34.2631C26.2571 33.9268 27.1442 32.9932 27.7947 31.8583C28.1531 31.2322 28.6088 30.9734 29.3123 31.0331C29.8234 31.0751 30.3411 31.0729 30.8543 31.0353C32.8211 30.8915 34.6131 30.8959 35.7989 33.0043C36.5688 34.3759 38.155 34.4512 39.6306 34.3693H39.6262Z" fill="#F1E9DC"/>
<path d="M40.3475 26.3982C38.9958 26.3982 37.6463 26.3982 36.2945 26.3982C32.0911 26.3982 27.8877 26.396 23.6865 26.3982C22.0803 26.3982 20.6445 27.5176 20.3923 28.9512C20.1423 30.3627 21.0427 31.9091 22.4564 32.4998C23.8037 33.0617 25.7019 32.1812 26.2749 30.7211C26.3612 30.4998 26.4143 30.2675 26.6112 30.0928C26.9319 31.1945 26.1842 31.8626 25.4563 32.4334C24.0648 33.5219 21.6688 33.0374 20.5427 31.5197C19.5383 30.168 19.7684 27.7566 21.202 26.876C22.0892 26.3318 23.2551 26.0154 24.3037 25.9955C29.2062 25.907 34.111 25.9491 39.0135 25.969C39.4869 25.969 39.9604 26.146 40.4338 26.2411C40.4051 26.2942 40.3763 26.3451 40.3475 26.3982Z" fill="#F1E9DC"/>
<path d="M22.8074 34.5747C22.8804 34.7982 22.9534 35.0238 23.0264 35.2473C23.022 37.8335 23.0176 40.4197 23.0154 43.0059C22.8826 42.9882 22.7521 42.9705 22.6193 42.9528C22.6016 42.882 22.5685 42.8179 22.5176 42.7648C22.5353 40.037 22.5552 37.3091 22.5729 34.5813C22.6503 34.5791 22.7278 34.5769 22.8052 34.5747H22.8074Z" fill="#EBF3F3"/>
<path d="M39.4466 30.9641C38.3138 30.9907 37.6789 30.4133 37.7143 29.5947C37.7364 29.0571 38.3271 28.3801 38.8448 28.0704C39.4864 27.6855 40.285 28.3337 40.6766 29.4642C39.8669 28.9863 39.1855 27.639 38.2851 28.9996C37.5639 30.0881 38.8271 30.3137 39.4466 30.9664V30.9641Z" fill="#F1E9DC"/>
<path d="M41.6148 31.7075C41.2763 32.7805 40.3869 32.9597 39.4423 33.0283C38.241 33.1168 37.2277 32.796 36.4844 31.6013C36.7255 31.6013 36.8605 31.5593 36.9136 31.608C38.3295 32.8889 39.783 32.9442 41.294 31.7761C41.3714 31.7164 41.5064 31.7252 41.6126 31.7031L41.617 31.7075H41.6148Z" fill="#F1E9DC"/>
<path d="M41.6104 31.7033C41.8935 30.5241 42.1745 29.3472 42.4156 28.3428C43.1214 29.1038 42.8116 31.0772 41.6148 31.7077L41.6104 31.7033Z" fill="#F1E9DC"/>
<path d="M24.5758 28.8337C23.6532 28.2894 22.8324 28.4509 22.1333 29.4598C22.0603 29.2983 21.9873 29.1368 21.9121 28.9753C22.3546 28.6456 22.7793 28.0881 23.2461 28.0505C23.6665 28.0151 24.1355 28.5461 24.5824 28.827L24.5758 28.8315V28.8337Z" fill="#F1E9DC"/>
<path d="M24.5796 28.8271C25.334 29.7453 24.949 30.5705 23.7588 30.8691C24.0088 30.243 24.292 29.5373 24.5729 28.8316L24.5796 28.8271Z" fill="#F1E9DC"/>
<path d="M41.7986 27.732C41.4778 27.4311 41.1548 27.1324 40.834 26.8315C40.9004 26.7475 40.9689 26.6656 41.0353 26.5815C41.3849 26.8559 41.7322 27.128 42.0817 27.4023C41.9866 27.5129 41.8937 27.6213 41.7986 27.732Z" fill="#F1E9DC"/>
<path d="M36.0553 29.8782C36.2035 30.2786 36.3539 30.679 36.5021 31.0817C36.3738 31.1193 36.2455 31.1569 36.1172 31.1945C36.0088 30.783 35.9004 30.3715 35.792 29.9578C35.8783 29.9313 35.9668 29.9047 36.053 29.876L36.0553 29.8782Z" fill="#F1E9DC"/>
<path d="M30.3298 44.5347C29.436 44.475 28.5422 44.4152 27.6484 44.3555C28.3453 44.3621 28.3431 43.8976 28.3409 43.3843C28.332 41.1122 28.3409 38.8424 28.3409 36.5703C29.2922 36.6323 29.6749 37.1743 29.6683 38.088C29.6572 39.8822 29.6727 41.6764 29.6594 43.4706C29.6572 43.9573 29.6838 44.3732 30.332 44.3201C30.332 44.3931 30.332 44.4639 30.3254 44.5369L30.3298 44.5347Z" fill="#DED7CB"/>
<path d="M33.8625 44.5214C33.3537 44.5325 32.8426 44.5413 32.3338 44.5524C32.3338 41.891 32.3294 39.2317 32.3271 36.5703C33.2785 36.6345 33.67 37.1765 33.6501 38.0902C33.6059 40.026 33.5572 41.9618 33.5417 43.8976C33.5417 44.1055 33.7519 44.3135 33.8625 44.5214Z" fill="#DED7CB"/>
<path d="M26.356 44.0527C25.6923 43.8514 25.0286 43.65 24.3627 43.4465C24.356 43.3669 24.3494 43.2872 24.3428 43.2076C24.3472 40.9222 24.3516 38.6369 24.3561 36.3516C25.2543 36.6414 25.7188 37.2122 25.6923 38.2033C25.6547 39.6612 25.6901 41.1236 25.679 42.5837C25.6746 43.0594 25.6857 43.4908 26.3449 43.431C26.3494 43.639 26.3516 43.8469 26.356 44.0549V44.0527Z" fill="#DED7CB"/>
<path d="M33.8623 44.5213C33.7495 44.3133 33.5393 44.1054 33.5415 43.8974C33.557 41.9616 33.6035 40.0259 33.6499 38.0901C33.6721 37.1764 33.2783 36.6321 32.327 36.5702C32.2451 35.8379 32.7606 35.4817 33.3026 35.5326C33.6964 35.5702 34.1123 36.0237 34.3911 36.391C34.5614 36.6144 34.5194 37.0215 34.5216 37.3467C34.5304 39.3268 34.5039 41.309 34.5481 43.289C34.557 43.6519 34.8402 44.0058 34.995 44.3664C34.6167 44.4173 34.2406 44.4704 33.8623 44.5213Z" fill="#D8CFC3"/>
<path d="M37.6431 43.6719C37.1963 43.8025 36.7516 43.933 36.3047 44.0635C36.3069 41.5636 36.3113 39.0636 36.3135 36.5659C37.2538 36.6389 37.6387 37.1765 37.6343 38.088C37.6255 39.9486 37.6387 41.8114 37.6431 43.6719Z" fill="#E1D8CB"/>
<path d="M30.3368 44.3202C29.6864 44.3732 29.6599 43.9573 29.6643 43.4706C29.6754 41.6764 29.6599 39.8822 29.6731 38.088C29.6798 37.1743 29.2971 36.6323 28.3457 36.5704C28.3413 35.8646 28.6555 35.4111 29.3988 35.5062C30.0669 35.5925 30.359 36.0217 30.3501 36.7407C30.3191 39.2672 30.3391 41.7937 30.3391 44.3179L30.3368 44.3202Z" fill="#D7CEBF"/>
<path d="M37.6431 43.6719C37.6387 41.8113 37.6254 39.9485 37.6342 38.088C37.6387 37.1765 37.2559 36.6389 36.3135 36.5659C36.5303 36.1986 36.7471 35.8292 36.9639 35.4619C37.3311 35.5416 37.6984 35.619 38.0656 35.6986C38.1431 37.1499 38.2448 38.599 38.2913 40.0503C38.3267 41.183 38.2935 42.3179 38.2913 43.4506C38.0745 43.5236 37.8577 43.5989 37.6409 43.6719H37.6431Z" fill="#D4CCC0"/>
<path d="M26.3453 43.4288C25.6883 43.4885 25.6772 43.0571 25.6794 42.5815C25.6905 41.1213 25.6551 39.6612 25.6927 38.201C25.7192 37.2099 25.2569 36.6391 24.3564 36.3493C24.3609 36.2033 24.3653 36.0595 24.3697 35.9135C24.5887 35.7675 24.8078 35.6237 25.0268 35.4777C25.0998 35.4732 25.1706 35.4688 25.2436 35.46C26.0931 35.575 26.3874 36.0529 26.3697 36.9068C26.321 39.0793 26.3498 41.2541 26.3453 43.4266V43.4288Z" fill="#D7CEBF"/>
<path d="M32.1413 44.5791C32.0595 44.6079 31.9754 44.6344 31.8936 44.661C31.9754 44.6322 32.0595 44.6056 32.1413 44.5791Z" fill="#DED7CB"/>
<path d="M24.3696 35.9157C24.3651 36.0617 24.3607 36.2055 24.3563 36.3515C24.3519 38.6368 24.3474 40.9222 24.343 43.2075C24.166 43.2186 23.9913 43.2274 23.8143 43.2385L23.759 43.2606L23.7059 43.2319C23.4758 43.1544 23.2457 43.077 23.0156 42.9974V43.0062C23.02 40.42 23.0245 37.8338 23.0267 35.2476C23.5444 35.3228 24.0621 35.398 24.5797 35.4732C24.509 35.6214 24.4382 35.7697 24.3674 35.9157H24.3696Z" fill="#F7EFE4"/>
<path d="M23.0156 42.9995C23.2457 43.0769 23.4758 43.1544 23.7059 43.234C23.4758 43.1566 23.2457 43.0792 23.0156 42.9995Z" fill="#EBF3F3"/>
<path d="M23.8145 43.2385C23.9914 43.2274 24.1662 43.2186 24.3432 43.2075C24.3498 43.2872 24.3565 43.3668 24.3631 43.4465C24.1795 43.3779 23.9981 43.3071 23.8145 43.2385Z" fill="#EBF3F3"/>
<path d="M24.3691 35.9156C24.4399 35.7674 24.5107 35.6192 24.5815 35.4731C24.7297 35.4754 24.878 35.4776 25.0262 35.4798C24.8072 35.6258 24.5882 35.7696 24.3691 35.9156Z" fill="#DED7CB"/>
</svg>
